<mxfile modified="2022-05-02T01:34:38.694Z" host="app.diagrams.net" agent="5.0 (Windows NT 10.0; Win64; x64) AppleWebKit/537.36 (KHTML, like Gecko) Chrome/100.0.4896.127 Safari/537.36 Edg/100.0.1185.50" etag="fUvVg403rWMWQgy_wHts" compressed="false" version="17.5.0" type="google">
  <diagram id="6OsbMEqHtL48bUzOgsbm" name="System Context/System Capabilities">
    <mxGraphModel grid="1" page="1" gridSize="10" guides="1" tooltips="1" connect="1" arrows="1" fold="1" pageScale="1" pageWidth="827" pageHeight="1169" math="0" shadow="0">
      <root>
        <mxCell id="LGpIO7TeEz5t6HyfAR9R-0" />
        <mxCell id="LGpIO7TeEz5t6HyfAR9R-1" value="Diagram" style="" parent="LGpIO7TeEz5t6HyfAR9R-0" />
        <mxCell id="oW4yHmcStx7hxY-S6is2-12" value="System" style="rounded=0;whiteSpace=wrap;html=1;strokeWidth=1;fillColor=none;fontSize=12;align=center;horizontal=1;verticalAlign=top;arcSize=12;container=1;absoluteArcSize=1;recursiveResize=0;collapsible=0;" vertex="1" parent="LGpIO7TeEz5t6HyfAR9R-1">
          <mxGeometry x="120" y="240" width="560" height="230" as="geometry" />
        </mxCell>
        <mxCell id="oW4yHmcStx7hxY-S6is2-0" value="[System]&lt;br&gt;Mng Security Principals" style="rounded=0;whiteSpace=wrap;html=1;strokeColor=#82b366;strokeWidth=3;fillColor=none;fontSize=12;align=center;fontFamily=Helvetica;verticalAlign=middle;" vertex="1" parent="oW4yHmcStx7hxY-S6is2-12">
          <mxGeometry x="280" y="80" width="80" height="40" as="geometry" />
        </mxCell>
        <mxCell id="oW4yHmcStx7hxY-S6is2-1" value="[System]&lt;br&gt;Mng Sessions" style="rounded=0;whiteSpace=wrap;html=1;strokeColor=#82b366;strokeWidth=3;fillColor=none;fontSize=12;align=center;fontFamily=Helvetica;verticalAlign=middle;" vertex="1" parent="oW4yHmcStx7hxY-S6is2-12">
          <mxGeometry x="100" y="80" width="80" height="40" as="geometry" />
        </mxCell>
        <mxCell id="oW4yHmcStx7hxY-S6is2-2" value="[System]&lt;br&gt;Manage Diagnostics" style="rounded=0;whiteSpace=wrap;html=1;strokeColor=#82b366;strokeWidth=3;fillColor=none;fontSize=12;align=center;fontFamily=Helvetica;verticalAlign=middle;" vertex="1" parent="oW4yHmcStx7hxY-S6is2-12">
          <mxGeometry x="10" y="30" width="80" height="40" as="geometry" />
        </mxCell>
        <mxCell id="oW4yHmcStx7hxY-S6is2-7" value="[System]&lt;br&gt;Mng&amp;nbsp;&lt;br style=&quot;font-size: 12px&quot;&gt;System Roles" style="rounded=0;whiteSpace=wrap;html=1;strokeColor=#82b366;strokeWidth=3;fillColor=none;fontSize=12;align=center;fontFamily=Helvetica;verticalAlign=middle;" vertex="1" parent="oW4yHmcStx7hxY-S6is2-12">
          <mxGeometry x="190" y="130" width="80" height="40" as="geometry" />
        </mxCell>
        <mxCell id="oW4yHmcStx7hxY-S6is2-8" value="[System]&lt;br&gt;Mng System Permissions" style="rounded=0;whiteSpace=wrap;html=1;strokeColor=#82b366;strokeWidth=3;fillColor=none;fontSize=12;align=center;fontFamily=Helvetica;verticalAlign=middle;" vertex="1" parent="oW4yHmcStx7hxY-S6is2-12">
          <mxGeometry x="100" y="130" width="80" height="40" as="geometry" />
        </mxCell>
        <mxCell id="oW4yHmcStx7hxY-S6is2-9" value="[System]&lt;br&gt;Mng&amp;nbsp; System Responsibilities" style="rounded=0;whiteSpace=wrap;html=1;strokeColor=#82b366;strokeWidth=3;fillColor=none;fontSize=12;align=center;fontFamily=Helvetica;verticalAlign=middle;" vertex="1" parent="oW4yHmcStx7hxY-S6is2-12">
          <mxGeometry x="10" y="130" width="80" height="40" as="geometry" />
        </mxCell>
        <mxCell id="oW4yHmcStx7hxY-S6is2-11" value="[System]&lt;br&gt;Manage &lt;br style=&quot;font-size: 12px&quot;&gt;IdPs" style="rounded=0;whiteSpace=wrap;html=1;strokeColor=#82b366;strokeWidth=3;fillColor=none;fontSize=12;align=center;fontFamily=Helvetica;verticalAlign=middle;" vertex="1" parent="oW4yHmcStx7hxY-S6is2-12">
          <mxGeometry x="190" y="80" width="80" height="40" as="geometry" />
        </mxCell>
        <mxCell id="oW4yHmcStx7hxY-S6is2-3" value="[System]&lt;br&gt;Manage Metrics" style="rounded=0;whiteSpace=wrap;html=1;strokeColor=#82b366;strokeWidth=3;fillColor=none;fontSize=12;align=center;fontFamily=Helvetica;verticalAlign=middle;" vertex="1" parent="oW4yHmcStx7hxY-S6is2-12">
          <mxGeometry x="100" y="30" width="80" height="40" as="geometry" />
        </mxCell>
        <mxCell id="oW4yHmcStx7hxY-S6is2-13" value="[System]&lt;br&gt;Mng Errors" style="rounded=0;whiteSpace=wrap;html=1;strokeColor=#82b366;strokeWidth=3;fillColor=none;fontSize=12;align=center;fontFamily=Helvetica;verticalAlign=middle;" vertex="1" parent="oW4yHmcStx7hxY-S6is2-12">
          <mxGeometry x="190" y="30" width="80" height="40" as="geometry" />
        </mxCell>
        <mxCell id="oW4yHmcStx7hxY-S6is2-14" value="&lt;font&gt;&lt;span style=&quot;font-size: 8px&quot;&gt;[System]&lt;/span&gt;&lt;br&gt;&lt;font style=&quot;font-size: 10px&quot;&gt;Mng Abnormal behaviour alerts&lt;/font&gt;&lt;/font&gt;" style="rounded=0;whiteSpace=wrap;html=1;strokeColor=#82b366;strokeWidth=3;fillColor=none;fontSize=12;align=center;fontFamily=Helvetica;verticalAlign=middle;" vertex="1" parent="oW4yHmcStx7hxY-S6is2-12">
          <mxGeometry x="280" y="30" width="80" height="40" as="geometry" />
        </mxCell>
        <mxCell id="oW4yHmcStx7hxY-S6is2-37" value="[System]&lt;br&gt;&amp;nbsp;Mng Roles Invitations" style="rounded=0;whiteSpace=wrap;html=1;strokeColor=#82b366;strokeWidth=3;fillColor=none;fontSize=12;align=center;fontFamily=Helvetica;verticalAlign=middle;" vertex="1" parent="oW4yHmcStx7hxY-S6is2-12">
          <mxGeometry x="280" y="130" width="80" height="40" as="geometry" />
        </mxCell>
        <mxCell id="oW4yHmcStx7hxY-S6is2-39" value="[System]&lt;br&gt;Mng&lt;br style=&quot;font-size: 12px&quot;&gt;Sys Config" style="rounded=0;whiteSpace=wrap;html=1;strokeColor=#82b366;strokeWidth=3;fillColor=none;fontSize=12;align=center;fontFamily=Helvetica;verticalAlign=middle;" vertex="1" parent="oW4yHmcStx7hxY-S6is2-12">
          <mxGeometry x="370" y="30" width="80" height="40" as="geometry" />
        </mxCell>
        <mxCell id="0qsVAJtt2wm0OEjJjdPk-46" value="[System]&lt;br&gt;Mng System Resources" style="rounded=0;whiteSpace=wrap;html=1;strokeColor=#82b366;strokeWidth=3;fillColor=none;fontSize=12;align=center;fontFamily=Helvetica;verticalAlign=middle;" vertex="1" parent="oW4yHmcStx7hxY-S6is2-12">
          <mxGeometry x="370" y="130" width="80" height="40" as="geometry" />
        </mxCell>
        <mxCell id="oW4yHmcStx7hxY-S6is2-38" value="[System]&lt;br&gt;Manage &lt;br style=&quot;font-size: 12px&quot;&gt;Sys Attr" style="rounded=0;whiteSpace=wrap;html=1;strokeColor=#82b366;strokeWidth=3;fillColor=none;fontSize=12;align=center;fontFamily=Helvetica;verticalAlign=middle;" vertex="1" parent="oW4yHmcStx7hxY-S6is2-12">
          <mxGeometry x="370" y="180" width="80" height="40" as="geometry" />
        </mxCell>
        <mxCell id="wIuZ6qHC7R0OFa_o1qmm-12" value="Manage Security Principals Logins" style="rounded=0;whiteSpace=wrap;html=1;strokeColor=#82b366;strokeWidth=3;fillColor=none;fontSize=10;align=center;fontFamily=Helvetica;verticalAlign=middle;" vertex="1" parent="oW4yHmcStx7hxY-S6is2-12">
          <mxGeometry x="370" y="80" width="80" height="40" as="geometry" />
        </mxCell>
        <mxCell id="mJGn4hfSvrqB8PbibyXr-11" value="Single/Batched&lt;br style=&quot;font-size: 12px;&quot;&gt;Change Notifications" style="rounded=0;whiteSpace=wrap;html=1;strokeColor=#82b366;strokeWidth=3;fillColor=none;fontSize=12;align=center;fontFamily=Helvetica;verticalAlign=middle;" vertex="1" parent="oW4yHmcStx7hxY-S6is2-12">
          <mxGeometry x="10" y="180" width="80" height="40" as="geometry" />
        </mxCell>
        <mxCell id="0qsVAJtt2wm0OEjJjdPk-45" value="[System]&lt;br style=&quot;font-size: 12px&quot;&gt;Import/Export by Protocols" style="rounded=0;whiteSpace=wrap;html=1;strokeColor=#82b366;strokeWidth=3;fillColor=none;fontSize=12;align=center;fontFamily=Helvetica;verticalAlign=middle;" vertex="1" parent="oW4yHmcStx7hxY-S6is2-12">
          <mxGeometry x="100" y="180" width="80" height="40" as="geometry" />
        </mxCell>
        <mxCell id="SDkyTRhEg9taQrLoA9RR-4" value="[System]&lt;br style=&quot;font-size: 12px&quot;&gt;Soft Delete / Undo-ability" style="rounded=0;whiteSpace=wrap;html=1;strokeColor=#82b366;strokeWidth=3;fillColor=none;fontSize=12;align=center;fontFamily=Helvetica;verticalAlign=middle;" vertex="1" parent="oW4yHmcStx7hxY-S6is2-12">
          <mxGeometry x="190" y="180" width="80" height="40" as="geometry" />
        </mxCell>
        <mxCell id="oW4yHmcStx7hxY-S6is2-18" value="&lt;font style=&quot;font-size: 10px&quot;&gt;[System]&lt;br&gt;Mng&amp;nbsp;&lt;br&gt;Multiple Orgs as Grps or Tenants&lt;/font&gt;" style="rounded=0;whiteSpace=wrap;html=1;strokeColor=#82b366;strokeWidth=3;fillColor=none;fontSize=12;align=center;fontFamily=Helvetica;verticalAlign=middle;dashed=1;" vertex="1" parent="oW4yHmcStx7hxY-S6is2-12">
          <mxGeometry x="460" y="160" width="80" height="60" as="geometry" />
        </mxCell>
        <mxCell id="XAKEY0ZF3n7usPrvmtKe-0" value="[System]&lt;br&gt;Mng Sys Agreements" style="rounded=0;whiteSpace=wrap;html=1;strokeColor=#82b366;strokeWidth=3;fillColor=none;fontSize=12;align=center;fontFamily=Helvetica;verticalAlign=middle;" vertex="1" parent="oW4yHmcStx7hxY-S6is2-12">
          <mxGeometry x="10" y="80" width="80" height="40" as="geometry" />
        </mxCell>
        <mxCell id="XAKEY0ZF3n7usPrvmtKe-2" value="[System]&lt;br&gt;Manage&lt;br style=&quot;font-size: 12px&quot;&gt;Vendor Attr" style="rounded=0;whiteSpace=wrap;html=1;strokeColor=#82b366;strokeWidth=3;fillColor=none;fontSize=12;align=center;fontFamily=Helvetica;verticalAlign=middle;" vertex="1" parent="oW4yHmcStx7hxY-S6is2-12">
          <mxGeometry x="280" y="180" width="80" height="40" as="geometry" />
        </mxCell>
        <mxCell id="uHeoPV0yTDgPADq8kLjA-8" value="Organisation Specific" style="rounded=0;whiteSpace=wrap;html=1;strokeColor=#000000;strokeWidth=1;fillColor=none;fontSize=12;fontColor=#000000;align=center;fontFamily=Helvetica;recursiveResize=0;container=1;collapsible=0;absoluteArcSize=1;arcSize=12;verticalAlign=top;" vertex="1" parent="LGpIO7TeEz5t6HyfAR9R-1">
          <mxGeometry x="120" y="480" width="560" height="130" as="geometry" />
        </mxCell>
        <mxCell id="uHeoPV0yTDgPADq8kLjA-4" value="&lt;font style=&quot;font-size: 11px;&quot;&gt;[Organisation]&lt;br style=&quot;font-size: 11px;&quot;&gt;Manage Org&lt;br style=&quot;font-size: 11px;&quot;&gt;Configuration&lt;/font&gt;" style="rounded=0;whiteSpace=wrap;html=1;strokeColor=#d6b656;strokeWidth=3;fillColor=none;fontSize=11;align=center;fontFamily=Helvetica;verticalAlign=middle;" vertex="1" parent="uHeoPV0yTDgPADq8kLjA-8">
          <mxGeometry x="10" y="30" width="80" height="40" as="geometry" />
        </mxCell>
        <mxCell id="XAKEY0ZF3n7usPrvmtKe-1" value="&lt;font style=&quot;font-size: 11px;&quot;&gt;[Organisation]&lt;br style=&quot;font-size: 11px;&quot;&gt;Manage Org&lt;br style=&quot;font-size: 11px;&quot;&gt;Agreements&lt;/font&gt;" style="rounded=0;whiteSpace=wrap;html=1;strokeColor=#d6b656;strokeWidth=3;fillColor=none;fontSize=11;align=center;fontFamily=Helvetica;verticalAlign=middle;" vertex="1" parent="uHeoPV0yTDgPADq8kLjA-8">
          <mxGeometry x="100" y="30" width="80" height="40" as="geometry" />
        </mxCell>
        <mxCell id="uHeoPV0yTDgPADq8kLjA-2" value="&lt;font style=&quot;font-size: 11px;&quot;&gt;[Organisation]&lt;br style=&quot;font-size: 11px;&quot;&gt;Manage Org Members&lt;/font&gt;" style="rounded=0;whiteSpace=wrap;html=1;strokeColor=#d6b656;strokeWidth=3;fillColor=none;fontSize=11;align=center;fontFamily=Helvetica;verticalAlign=middle;" vertex="1" parent="uHeoPV0yTDgPADq8kLjA-8">
          <mxGeometry x="190" y="30" width="80" height="40" as="geometry" />
        </mxCell>
        <mxCell id="uHeoPV0yTDgPADq8kLjA-0" value="&lt;font style=&quot;font-size: 11px;&quot;&gt;[Organisation]&lt;br style=&quot;font-size: 11px;&quot;&gt;Manage Org Resources&lt;/font&gt;" style="rounded=0;whiteSpace=wrap;html=1;strokeColor=#d6b656;strokeWidth=3;fillColor=none;fontSize=11;align=center;fontFamily=Helvetica;verticalAlign=middle;" vertex="1" parent="uHeoPV0yTDgPADq8kLjA-8">
          <mxGeometry x="280" y="30" width="80" height="40" as="geometry" />
        </mxCell>
        <mxCell id="uHeoPV0yTDgPADq8kLjA-1" value="&lt;font style=&quot;font-size: 11px;&quot;&gt;[Organisation]&lt;br style=&quot;font-size: 11px;&quot;&gt;Manage User Voice&lt;/font&gt;" style="rounded=0;whiteSpace=wrap;html=1;strokeColor=#d6b656;strokeWidth=3;fillColor=none;fontSize=11;align=center;fontFamily=Helvetica;verticalAlign=middle;" vertex="1" parent="uHeoPV0yTDgPADq8kLjA-8">
          <mxGeometry x="370" y="30" width="80" height="40" as="geometry" />
        </mxCell>
        <mxCell id="uHeoPV0yTDgPADq8kLjA-3" value="&lt;span style=&quot;font-size: 11px;&quot;&gt;[Organisation]&lt;/span&gt;&lt;br style=&quot;font-size: 11px;&quot;&gt;Manage &lt;br style=&quot;font-size: 11px;&quot;&gt;Endorsement" style="rounded=0;whiteSpace=wrap;html=1;strokeColor=#d6b656;strokeWidth=3;fillColor=none;fontSize=11;align=center;fontFamily=Helvetica;verticalAlign=middle;dashed=1;" vertex="1" parent="uHeoPV0yTDgPADq8kLjA-8">
          <mxGeometry x="460" y="30" width="70" height="40" as="geometry" />
        </mxCell>
        <mxCell id="uHeoPV0yTDgPADq8kLjA-6" value="&lt;font style=&quot;font-size: 11px;&quot;&gt;[Organisation]&lt;br style=&quot;font-size: 11px;&quot;&gt;Manage Org&lt;br style=&quot;font-size: 11px;&quot;&gt;State&lt;/font&gt;" style="rounded=0;whiteSpace=wrap;html=1;strokeColor=#d6b656;strokeWidth=3;fillColor=none;fontSize=11;align=center;fontFamily=Helvetica;verticalAlign=middle;" vertex="1" parent="uHeoPV0yTDgPADq8kLjA-8">
          <mxGeometry x="10" y="80" width="80" height="40" as="geometry" />
        </mxCell>
        <mxCell id="YTUXQs7r2jLKt2W23SZs-1" value="&lt;font style=&quot;font-size: 11px;&quot;&gt;[Organisation]&lt;br style=&quot;font-size: 11px;&quot;&gt;Manage Org&lt;br style=&quot;font-size: 11px;&quot;&gt;Notifications&lt;/font&gt;" style="rounded=0;whiteSpace=wrap;html=1;strokeColor=#d6b656;strokeWidth=3;fillColor=none;fontSize=11;align=center;fontFamily=Helvetica;verticalAlign=middle;" vertex="1" parent="uHeoPV0yTDgPADq8kLjA-8">
          <mxGeometry x="100" y="80" width="80" height="40" as="geometry" />
        </mxCell>
        <mxCell id="4yV4Z-5SiW0pBDj7O7xM-0" value="Context/Legend" parent="LGpIO7TeEz5t6HyfAR9R-0" />
        <mxCell id="SLfenpavnbFYOD3M33au-0" value="" style="rounded=0;whiteSpace=wrap;html=1;fontSize=10;align=left;container=1;collapsible=0;fontColor=#B3B3B3;strokeColor=#B3B3B3;" vertex="1" parent="4yV4Z-5SiW0pBDj7O7xM-0">
          <mxGeometry x="489.44" y="180" width="190.56" height="50" as="geometry" />
        </mxCell>
        <mxCell id="SLfenpavnbFYOD3M33au-1" value="" style="whiteSpace=wrap;html=1;aspect=fixed;fillColor=none;strokeColor=#82b366;fontSize=10;align=left;fontStyle=2;strokeWidth=2;" vertex="1" parent="SLfenpavnbFYOD3M33au-0">
          <mxGeometry x="10.555801749271124" y="16.666666666666668" width="8.333333333333334" height="8.333333333333334" as="geometry" />
        </mxCell>
        <mxCell id="SLfenpavnbFYOD3M33au-2" value="" style="whiteSpace=wrap;html=1;aspect=fixed;fillColor=none;strokeColor=#d6b656;fontSize=10;align=left;fontStyle=2;strokeWidth=2;" vertex="1" parent="SLfenpavnbFYOD3M33au-0">
          <mxGeometry x="10.555801749271124" y="28" width="8.333333333333334" height="8.333333333333334" as="geometry" />
        </mxCell>
        <mxCell id="SLfenpavnbFYOD3M33au-3" value="" style="whiteSpace=wrap;html=1;aspect=fixed;fillColor=none;strokeColor=#6c8ebf;fontSize=10;align=left;fontStyle=2;strokeWidth=2;" vertex="1" parent="SLfenpavnbFYOD3M33au-0">
          <mxGeometry x="10.555801749271124" y="39.333333333333336" width="8.333333333333334" height="8.333333333333334" as="geometry" />
        </mxCell>
        <mxCell id="SLfenpavnbFYOD3M33au-4" value="Internal, System (Shared)&amp;nbsp;" style="text;html=1;strokeColor=none;fillColor=none;align=left;verticalAlign=middle;whiteSpace=wrap;rounded=0;fontSize=10;fontStyle=2;fontColor=#B3B3B3;" vertex="1" parent="SLfenpavnbFYOD3M33au-0">
          <mxGeometry x="21.11604804664722" y="16.666666666666668" width="169.44395195335275" height="8.333333333333334" as="geometry" />
        </mxCell>
        <mxCell id="SLfenpavnbFYOD3M33au-5" value="Internal, Organisation Bound&amp;nbsp;" style="text;html=1;strokeColor=none;fillColor=none;align=left;verticalAlign=middle;whiteSpace=wrap;rounded=0;fontSize=10;fontStyle=2;fontColor=#B3B3B3;" vertex="1" parent="SLfenpavnbFYOD3M33au-0">
          <mxGeometry x="21.11604804664722" y="28" width="169.44395195335275" height="8.333333333333334" as="geometry" />
        </mxCell>
        <mxCell id="SLfenpavnbFYOD3M33au-6" value="External, Versioned Contracts/Msgs" style="text;html=1;strokeColor=none;fillColor=none;align=left;verticalAlign=middle;whiteSpace=wrap;rounded=0;fontSize=10;fontStyle=2;fontColor=#B3B3B3;" vertex="1" parent="SLfenpavnbFYOD3M33au-0">
          <mxGeometry x="21.11604804664722" y="39.333333333333336" width="169.44395195335275" height="8.333333333333334" as="geometry" />
        </mxCell>
        <mxCell id="SLfenpavnbFYOD3M33au-7" value="Legend" style="text;html=1;strokeColor=none;fillColor=none;align=center;verticalAlign=middle;whiteSpace=wrap;rounded=0;fontSize=10;fontStyle=5;fontColor=#B3B3B3;" vertex="1" parent="SLfenpavnbFYOD3M33au-0">
          <mxGeometry x="21.111603498542262" width="126.66962099125365" height="16.666666666666668" as="geometry" />
        </mxCell>
        <mxCell id="XDfdUk-GLukKhuvUulYF-1" value="Title/Diagram" parent="LGpIO7TeEz5t6HyfAR9R-0" />
        <mxCell id="XDfdUk-GLukKhuvUulYF-2" value="&lt;font style=&quot;font-size: 12px&quot;&gt;&lt;span style=&quot;font-size: 12px&quot;&gt;Diagram: &lt;/span&gt;System Context - System Capabilities&lt;/font&gt;" style="text;strokeColor=none;fillColor=none;html=1;fontSize=24;fontStyle=2;verticalAlign=middle;align=left;shadow=0;glass=0;comic=0;opacity=30;fontColor=#808080;" vertex="1" parent="XDfdUk-GLukKhuvUulYF-1">
          <mxGeometry x="120" y="620" width="520" height="20" as="geometry" />
        </mxCell>
      </root>
    </mxGraphModel>
  </diagram>
</mxfile>
